<?xml version="1.0" encoding="UTF-8"?>
<!DOCTYPE svg PUBLIC "-//W3C//DTD SVG 1.1//EN" "http://www.w3.org/Graphics/SVG/1.1/DTD/svg11.dtd">
<!-- Creator: CorelDRAW 2019 (64 Bit) -->
<svg xmlns="http://www.w3.org/2000/svg" xml:space="preserve" width="300px" height="179px" version="1.1" style="shape-rendering:geometricPrecision; text-rendering:geometricPrecision; image-rendering:optimizeQuality; fill-rule:evenodd; clip-rule:evenodd"
viewBox="0 0 314490 187600"
 xmlns:xlink="http://www.w3.org/1999/xlink"
 xmlns:xodm="http://www.corel.com/coreldraw/odm/2003">
 <defs>
  <style type="text/css">
   <![CDATA[
    .fil1 {fill:#124490}
    .fil0 {fill:#3DBAC7}
    .fil2 {fill:#124490;fill-rule:nonzero}
   ]]>
  </style>
 </defs>
 <g id="Camada_x0020_1">
  <metadata id="CorelCorpID_0Corel-Layer"/>
  <g id="_2599679820448">
   <g>
    <path class="fil0" d="M135460 0c-7320,0 -13290,5970 -13290,13280 0,7320 5970,13290 13290,13290 7310,0 13280,-5970 13280,-13290 0,-7310 -5970,-13280 -13280,-13280zm-31730 26850c-39280,-23250 -82740,-15760 -103720,8760 105490,18160 120260,3180 212180,-8760 26640,-3390 71080,2260 101460,9110 -53410,-55110 -147670,22830 -209920,-9110z"/>
    <path class="fil1" d="M313650 121150c-157560,-30090 -155090,27590 -313640,0l0 60c190770,38160 164060,-25090 313640,50l0 -110zm-245930 -32750c0,1460 -670,3000 -2000,4670 -1310,1640 -3330,3220 -6040,4720 -2710,1480 -6130,2690 -10260,3590 -4110,920 -8750,1370 -13900,1370 -11000,0 -19540,-2090 -25720,-6290 -6150,-4190 -9240,-9820 -9240,-16890 0,-4770 1400,-9000 4220,-12670 2820,-3670 6910,-6510 12240,-8510 5350,-2010 11720,-3020 19140,-3020 4600,0 8820,440 12660,1330 3820,870 7080,2010 9750,3410 2660,1400 4710,2890 6110,4460 1420,1590 2130,3060 2130,4410 0,1400 -800,2580 -2380,3560 -1600,960 -3510,1440 -5770,1440 -1470,0 -2690,-250 -3670,-740 -970,-500 -2060,-1310 -3280,-2420 -2180,-2160 -4440,-3780 -6800,-4870 -2380,-1080 -5370,-1610 -9020,-1610 -5240,0 -9480,1340 -12670,4030 -3220,2680 -4820,6370 -4820,11030 0,2200 420,4210 1240,6050 820,1830 2000,3390 3580,4690 1550,1290 3440,2270 5660,2940 2200,670 4640,1010 7280,1010 3550,0 6600,-540 9130,-1620 2550,-1090 4800,-2740 6750,-4960 1070,-1310 2240,-2330 3510,-3070 1240,-740 2800,-1110 4620,-1110 2170,0 3970,540 5390,1620 1430,1080 2160,2230 2160,3450zm41330 -26560l14390 26480 15470 -27630c1230,-2210 2430,-3790 3580,-4720 1180,-920 2950,-1380 5350,-1380 2250,0 4180,490 5750,1500 1580,990 2380,2140 2380,3450 0,510 -130,1110 -420,1790 -290,690 -600,1330 -980,1930 -380,590 -800,1280 -1260,2040l-17060 27750c-470,790 -1090,1810 -1840,3030 -760,1230 -1620,2260 -2560,3130 -930,880 -2060,1550 -3440,2030 -1350,480 -3020,730 -4970,730 -2510,0 -4530,-380 -6020,-1140 -1490,-740 -2600,-1570 -3310,-2480 -730,-880 -1930,-2660 -3620,-5300l-16920 -27450c-380,-680 -800,-1370 -1200,-2050 -420,-690 -760,-1370 -1040,-2090 -290,-710 -430,-1320 -430,-1830 0,-800 380,-1590 1110,-2380 740,-780 1760,-1420 3070,-1920 1290,-490 2710,-740 4220,-740 2950,0 4970,550 6080,1660 1110,1110 2330,2970 3670,5590zm93490 33560c-4310,2180 -8460,3830 -12460,4920 -4020,1090 -8530,1650 -13500,1650 -4580,0 -8570,-600 -12020,-1780 -3440,-1180 -6100,-2770 -7970,-4790 -1860,-2030 -2800,-4210 -2800,-6570 0,-3190 1540,-5900 4620,-8160 3090,-2250 7310,-3760 12710,-4520 1110,-170 3900,-550 8390,-1150 4460,-610 8280,-1150 11480,-1650 3180,-510 6640,-1100 10370,-1820 -220,-3070 -1150,-5330 -2820,-6760 -1690,-1440 -5130,-2150 -10390,-2150 -4510,0 -7910,400 -10170,1230 -2290,830 -4240,2060 -5870,3720 -1620,1650 -2770,2740 -3440,3260 -690,530 -2130,790 -4330,790 -2000,0 -3730,-420 -5170,-1270 -1470,-830 -2180,-1910 -2180,-3220 0,-2040 1090,-4030 3310,-5970 2220,-1940 5660,-3530 10350,-4780 4680,-1250 10500,-1880 17500,-1880 7810,0 13940,610 18410,1820 4460,1210 7610,3120 9460,5740 1840,2610 2780,6090 2780,10420 0,2720 -30,5050 -50,6950 -20,1910 -40,4030 -90,6370 0,2180 560,4470 1670,6840 1110,2380 1640,3910 1640,4590 0,1200 -840,2290 -2550,3270 -1710,970 -3670,1470 -5820,1470 -1820,0 -3620,-570 -5400,-1690 -1800,-1120 -3660,-2740 -5660,-4880zm-1180 -16860c-2600,630 -6390,1280 -11350,1980 -4970,700 -8410,1210 -10320,1550 -1910,320 -3730,960 -5470,1920 -1730,950 -2590,2270 -2590,3980 0,1770 1020,3270 3060,4510 2040,1240 4710,1850 8000,1850 3500,0 6750,-510 9720,-1510 2980,-1010 5150,-2320 6550,-3910 1600,-1760 2400,-4660 2400,-8710l0 -1660zm23450 18090l0 -50540c0,-2330 800,-4090 2380,-5290 1580,-1190 3710,-1790 6420,-1790 2680,0 4840,600 6500,1780 1650,1180 2470,2940 2470,5300l0 50540c0,2360 -850,4130 -2510,5310 -1670,1180 -3820,1780 -6460,1780 -2620,0 -4730,-620 -6350,-1840 -1630,-1220 -2450,-2970 -2450,-5250zm75020 -15500l-34740 0c50,2660 870,4990 2450,7010 1570,2030 3680,3540 6300,4560 2620,1040 5530,1550 8690,1550 2130,0 4060,-160 5810,-500 1760,-320 3470,-830 5110,-1530 1670,-700 3180,-1440 4550,-2240 1400,-800 3200,-1880 5420,-3250 910,-510 2200,-770 3890,-770 1820,0 3310,330 4440,990 1110,650 1690,1570 1690,2760 0,1050 -650,2290 -1890,3710 -1260,1390 -3150,2750 -5710,4050 -2530,1290 -5700,2370 -9550,3210 -3840,870 -8260,1290 -13230,1290 -11410,0 -20300,-2130 -26630,-6400 -6330,-4270 -9500,-10070 -9500,-17380 0,-3440 780,-6640 2350,-9590 1560,-2940 3840,-5460 6820,-7570 3000,-2100 6680,-3720 11080,-4840 4380,-1120 9240,-1690 14570,-1690 6950,0 12900,960 17850,2880 4980,1930 8690,4410 11170,7450 2470,3040 3710,6150 3710,9310 0,2930 -1290,4820 -3840,5700 -2550,860 -6170,1290 -10810,1290zm-34740 -6610l32200 0c-420,-3980 -2060,-6970 -4900,-8930 -2850,-1980 -6580,-2970 -11220,-2970 -4440,0 -8060,1000 -10900,3000 -2840,2010 -4580,4980 -5180,8900zm-184740 -2930c3920,0 7660,3560 7660,8100 0,3920 -3740,7480 -7660,7480 -4460,0 -8020,-3560 -8020,-7480 0,-4540 3560,-8100 8020,-8100z"/>
   </g>
   <g>
    <path class="fil2" d="M277680 149130l35150 0c920,0 1660,740 1660,1660 0,160 -30,320 -70,460l-3250 13830c-170,740 -820,1250 -1540,1280l-25310 1870 -1270 3340 23710 0c920,0 1660,740 1660,1660 0,910 -740,1660 -1660,1660l-26120 0c-200,-10 -400,-40 -590,-110 -860,-330 -1290,-1290 -960,-2140l2140 -5600 -7910 -19940 -5130 0c-920,0 -1660,-740 -1660,-1660 0,-910 740,-1660 1660,-1660l6250 0c760,0 1400,510 1600,1200l1640 4150zm8000 35150c580,0 1110,-240 1490,-620l60 -60c350,-380 560,-880 560,-1430 0,-590 -240,-1120 -620,-1500l0 10c-380,-380 -910,-620 -1490,-620 -580,0 -1110,240 -1490,620 -380,380 -620,900 -620,1490 0,580 240,1110 620,1490 380,380 910,620 1490,620zm3840 1730c-990,980 -2340,1590 -3840,1590 -1500,0 -2860,-610 -3840,-1590 -980,-990 -1590,-2340 -1590,-3840 0,-1500 610,-2860 1590,-3840 980,-980 2340,-1590 3840,-1590 1500,0 2850,610 3840,1590l-10 0 10 10c980,980 1590,2330 1590,3830 0,1440 -570,2750 -1500,3730 -30,30 -60,70 -90,110zm12070 -1730c580,0 1110,-240 1490,-620 380,-380 620,-910 620,-1490 0,-590 -240,-1110 -620,-1490 -380,-380 -910,-620 -1490,-620 -580,0 -1110,240 -1490,620 -380,380 -620,900 -620,1490 0,580 240,1110 620,1490 380,380 910,620 1490,620zm3840 1730c-990,980 -2340,1590 -3840,1590 -1500,0 -2860,-610 -3840,-1590 -980,-990 -1590,-2340 -1590,-3840 0,-1500 610,-2860 1590,-3840 980,-980 2340,-1590 3840,-1590 1500,0 2850,610 3840,1590 980,980 1590,2340 1590,3840 0,1500 -610,2850 -1590,3840zm-21480 -21080l24270 -1790 2510 -10690 -31730 0 4950 12480z"/>
    <path class="fil2" d="M24800 183520l0 -24510 -3420 0 -8940 17650 -8970 -17650 -3470 0 0 24510 2660 0 0 -20210 8900 17620 1690 0 8940 -17620 30 20210 2580 0zm22970 -6200l2740 6200 3040 0 -10960 -24510 -2910 0 -10990 24510 2970 0 2740 -6200 13370 0zm-1190 -2690l-10990 0 5460 -12440 5530 12440zm26870 8890l3190 0 -5750 -8330c3540,-1160 5500,-3890 5500,-7950 0,-5220 -3540,-8230 -9670,-8230l-9310 0 0 24510 2800 0 0 -7740 6510 0c560,0 1120,-30 1650,-70l5080 7810zm-13240 -10430l0 -11390 6510 0c4450,0 6970,1890 6970,5610 0,3810 -2520,5780 -6970,5780l-6510 0zm39120 10430l3430 0 -10430 -13870 9700 -10640 -3330 0 -13170 14110 0 -14110 -2800 0 0 24510 2800 0 0 -6410 4770 -5210 9030 11620zm24520 -21820l0 -2690 -16640 0 0 24510 17100 0 0 -2660 -14290 0 0 -8400 12360 0 0 -2700 -12360 0 0 -8060 13830 0zm21650 0l0 -2690 -18810 0 0 2690 7980 0 0 21820 2810 0 0 -21820 8020 0z"/>
    <path class="fil2" d="M149990 159010l0 24510 5530 0 0 -7000 4870 0c6230,0 9810,-3290 9810,-9000 0,-5430 -3580,-8510 -9810,-8510l-10400 0zm5530 4580l4590 0c3080,0 4830,1370 4830,4100 0,2800 -1750,4210 -4830,4210l-4590 0 0 -8310zm23750 15100l0 -19680 -5540 0 0 24510 16050 0 0 -4830 -10510 0zm30120 70l1930 4760 5920 0 -10480 -24510 -5710 0 -10640 24510 5710 0 1920 -4760 11350 0zm-1790 -4450l-7740 0 3890 -9530 3850 9530zm22840 -15480c-7420,0 -13060,5320 -13060,12400 0,7110 5530,12540 12850,12540 3570,0 7320,-1720 9910,-4380l-3250 -3540c-1760,1750 -4170,2880 -6380,2880 -4200,0 -7460,-3300 -7460,-7570 0,-4270 3260,-7530 7460,-7530 2280,0 4690,1260 6380,3190l3220 -3930c-2420,-2480 -6130,-4060 -9670,-4060zm31660 4760l0 -4580 -18660 0 0 24510 19050 0 0 -4580 -13520 0 0 -5430 11840 0 0 -4590 -11840 0 0 -5330 13130 0z"/>
   </g>
  </g>
 </g>
</svg>
